<?xml version="1.0" encoding="UTF-8"?>
<svg xmlns="http://www.w3.org/2000/svg" xmlns:xlink="http://www.w3.org/1999/xlink" width="311.7" height="126.28" viewBox="0 0 311.7 126.28">
  <defs>
    <clipPath id="a" transform="translate(0 0)">
      <rect x="-591.53" y="-496.25" width="1599.17" height="1066.12" fill="none"></rect>
    </clipPath>
  </defs>
  <title>dark-logo</title>
  <g clip-path="url(#a)">
    <g clip-path="url(#a)">
      <path d="M81.57,37c-1.21,6.1-5.27,11.92-8.46,11.92-3,0-7.26-5.84-8.45-11.92C63.4,30.5,68.44,25,73.11,25S82.84,30.5,81.57,37" transform="translate(0 0)" fill="#468f77"></path>
      <path d="M30.83,104c20.33.12,34.17,7.73,42.28,14.85-3.69-9.31-10.22-17.34-19.47-21.76h0a32.19,32.19,0,0,0-4.1-1.65,38.24,38.24,0,0,0-10.37-1.9c-.61,0-1.22-.05-1.86-.05C26,93.45,13.13,97.74,0,110.05c4.17-1.86,13-3,28.72,4.4,10.42,4.9,23.41,11.83,44.39,11.83C62.26,110.05,41.66,104.37,30.83,104" transform="translate(0 0)" fill="#468f77"></path>
      <path d="M58.6,90.21a14.1,14.1,0,0,1-5,4.33v0a24.47,24.47,0,0,0,5-4.31" transform="translate(0 0)" fill="#468f77"></path>
      <path d="M61,85.58c.05.58-5.42,8.06-7.36,9v0C52.38,86.16,41.86,73.79,38,65.23c2.28,8.24,10.22,20.55,11.54,27.55a38.24,38.24,0,0,0-10.37-1.9c-.61,0-1.22,0-1.86,0-7.39-9-10.9-27.59-2.65-46.5C36.42,56.65,59.4,63.47,61,85.58" transform="translate(0 0)" fill="#468f77"></path>
      <path d="M73.11,126.28c21,0,34-6.93,44.4-11.83,15.75-7.41,24.55-6.26,28.71-4.4-13.12-12.31-26-16.6-37.29-16.56-.64,0-1.25,0-1.86.05a38.24,38.24,0,0,0-10.37,1.9,31.6,31.6,0,0,0-4.1,1.65h0c-9.24,4.42-15.78,12.45-19.47,21.76,8.11-7.12,22-14.73,42.28-14.85-10.82.36-31.42,6-42.28,22.28" transform="translate(0 0)" fill="#468f77"></path>
      <path d="M92.58,94.54c-9.24,4.42-15.78,15-19.47,24.31C69.42,109.54,62.89,99,53.65,94.54a14.1,14.1,0,0,0,5-4.33.09.09,0,0,1,.06-.06c.56-.64,1.12-1.31,1.64-2v0l.53-.78a22.22,22.22,0,0,0,3.84-14.1C63.9,62.12,51.81,51,51.81,36.77,51.81,17,71,1.55,73.11,0,72,1.25,58.28,16.37,58.31,34.92c0,13,6.62,18.45,9.26,18.22,4.38-.39,2.7-8.65,2.86-10.66-.83-.1,2.29.15,2.68.15s2.19-.23,2.57-.3c.15,2-1.4,10.42,3,10.81,2.64.23,9.25-5.18,9.26-18.22C88,16.37,74.19,1.25,73.11,0c2.16,1.55,21.31,17,21.31,36.77,0,14.2-12.09,25.35-12.86,36.45a22.22,22.22,0,0,0,3.84,14.1l.53.78v0c.52.72,1.08,1.39,1.64,2a.09.09,0,0,1,.06.06,14.1,14.1,0,0,0,5,4.33" transform="translate(0 0)" fill="#468f77"></path>
      <path d="M92.58,94.52v0a14.1,14.1,0,0,1-5-4.33,24.47,24.47,0,0,0,5,4.31" transform="translate(0 0)" fill="#468f77"></path>
      <path d="M108.93,90.83c-.64,0-1.25,0-1.86,0a38.24,38.24,0,0,0-10.37,1.9c1.32-7,9.26-19.3,11.54-27.55-3.87,8.57-14.4,20.93-15.66,29.29v0c-1.94-.9-7.41-8.38-7.36-9,1.61-22.11,24.59-28.93,26.36-41.25,8.25,18.91,4.74,37.47-2.65,46.5" transform="translate(0 0)" fill="#468f77"></path>
    </g>
    <path d="M165,74.74,150.09,45.13h8.2l12,24.32L168,68.72h7l-2.44.73,11.17-24.32h7.73L177.53,74.74Zm2.38,18.64v-20h7.74v20Z" transform="translate(0 0)"></path>
    <path d="M209.58,94.57A20.46,20.46,0,0,1,201.32,93a18.06,18.06,0,0,1-6-4.13A17.65,17.65,0,0,1,191.6,83a18.89,18.89,0,0,1-1.25-6.77V74.94a18.55,18.55,0,0,1,1.29-6.81,17.78,17.78,0,0,1,9.81-10,20.64,20.64,0,0,1,8.13-1.52,20.42,20.42,0,0,1,8.1,1.52,18.32,18.32,0,0,1,6,4.13,17.81,17.81,0,0,1,3.8,5.92,18.55,18.55,0,0,1,1.29,6.81v1.32A18.69,18.69,0,0,1,227.56,83a17.65,17.65,0,0,1-3.7,5.85,18.06,18.06,0,0,1-6,4.13A20.42,20.42,0,0,1,209.58,94.57Zm0-6.75a11.45,11.45,0,0,0,6.22-1.61,10.6,10.6,0,0,0,3.93-4.4,15,15,0,0,0,0-12.49,10.83,10.83,0,0,0-4-4.4,12.46,12.46,0,0,0-12.29,0,10.76,10.76,0,0,0-4,4.4,14.87,14.87,0,0,0,0,12.49,10.53,10.53,0,0,0,3.93,4.4A11.44,11.44,0,0,0,209.58,87.82Z" transform="translate(0 0)"></path>
    <path d="M249.64,107.32c-1.68,0-3.37-.06-5.09-.19s-3.33-.31-4.83-.53v-6.55c1.59.22,3.28.41,5.06.57s3.45.23,5,.23a19.48,19.48,0,0,0,7.44-1.19A7.9,7.9,0,0,0,261.3,96a14,14,0,0,0,1.29-6.45V82.67l2.05-4.76a19.13,19.13,0,0,1-2.15,8.66,13.2,13.2,0,0,1-5.15,5.29A14.77,14.77,0,0,1,250,93.64a16,16,0,0,1-6.74-1.39,15,15,0,0,1-5.22-3.9,18.19,18.19,0,0,1-3.37-5.78,20.33,20.33,0,0,1-1.19-7V74.34a19.82,19.82,0,0,1,1.22-7,17.16,17.16,0,0,1,3.47-5.65A15.48,15.48,0,0,1,243.59,58a17.66,17.66,0,0,1,6.91-1.32,15.36,15.36,0,0,1,7.7,1.88A13.34,13.34,0,0,1,263.45,64a19.9,19.9,0,0,1,2.05,8.86l-1.72.2V57.75h6.15v31.4a22.63,22.63,0,0,1-2.08,10.47,12.45,12.45,0,0,1-6.55,5.85A30.7,30.7,0,0,1,249.64,107.32ZM252,86.77a11.1,11.1,0,0,0,5.32-1.29,9.68,9.68,0,0,0,3.84-3.7A11.29,11.29,0,0,0,262.53,76V73.28A10,10,0,0,0,261,67.7a9.72,9.72,0,0,0-3.87-3.47A11.24,11.24,0,0,0,252,63a10.6,10.6,0,0,0-5.62,1.48,10.1,10.1,0,0,0-3.8,4.17,15,15,0,0,0,0,12.56,10,10,0,0,0,3.8,4.1A10.75,10.75,0,0,0,252,86.77Z" transform="translate(0 0)"></path>
    <path d="M294.85,94.57A19.08,19.08,0,0,1,286.78,93a15.81,15.81,0,0,1-5.61-4.2,17.9,17.9,0,0,1-3.28-5.88,21.29,21.29,0,0,1-1.09-6.71V74.94a21.49,21.49,0,0,1,1.09-6.78,17.9,17.9,0,0,1,3.28-5.88,15.69,15.69,0,0,1,5.52-4.17,18.28,18.28,0,0,1,7.76-1.55A17.19,17.19,0,0,1,304,59.07a16,16,0,0,1,5.75,6.51,19.82,19.82,0,0,1,1.91,8.63v3.1H280.11V72.09h26.37l-2.11,2.65a15.53,15.53,0,0,0-1.13-6.18,8.9,8.9,0,0,0-3.3-4,11.26,11.26,0,0,0-11.24.17,9.47,9.47,0,0,0-3.44,4.36,17.41,17.41,0,0,0-1.12,6.55A17.08,17.08,0,0,0,285.26,82a9.46,9.46,0,0,0,3.51,4.42,12.22,12.22,0,0,0,12.16,0,6.48,6.48,0,0,0,2.91-3.8H311A14.19,14.19,0,0,1,308.1,89a14.45,14.45,0,0,1-5.58,4.16A19.21,19.21,0,0,1,294.85,94.57Z" transform="translate(0 0)"></path>
  </g>
</svg>
