<?xml version="1.0" encoding="UTF-8"?>
<svg xmlns="http://www.w3.org/2000/svg" width="292.25" height="118.45" viewBox="0 0 292.25 118.45">
  <title>logo-white</title>
  <path d="M78.2,36.59c-1.12,5.73-4.94,11.18-7.93,11.18-2.8,0-6.81-5.48-7.92-11.18-1.18-6.07,3.55-11.2,7.92-11.2S79.4,30.52,78.2,36.59Z" transform="translate(-1.7 -1.92)" fill="#fff"></path>
  <path d="M30.62,99.47c19.06.11,32.05,7.25,39.66,13.93C66.82,104.67,60.69,97.13,52,93h0a31.24,31.24,0,0,0-3.85-1.55,36,36,0,0,0-9.73-1.78c-.57,0-1.13,0-1.73,0-10.57,0-22.68,4-35,15.53,3.9-1.74,12.17-2.82,26.94,4.13,9.77,4.6,22,11.09,41.64,11.09C60.09,105.14,40.78,99.81,30.62,99.47Z" transform="translate(-1.7 -1.92)" fill="#fff"></path>
  <path d="M56.66,86.53A13.06,13.06,0,0,1,52,90.59h0A23.18,23.18,0,0,0,56.66,86.53Z" transform="translate(-1.7 -1.92)" fill="#fff"></path>
  <path d="M58.92,82.19c0,.54-5.08,7.56-6.91,8.4h0C50.83,82.73,41,71.13,37.33,63.1c2.13,7.73,9.58,19.27,10.82,25.84a36,36,0,0,0-9.73-1.78c-.57,0-1.13,0-1.73,0-6.94-8.48-10.23-25.89-2.5-43.62C35.86,55.05,57.41,61.45,58.92,82.19Z" transform="translate(-1.7 -1.92)" fill="#fff"></path>
  <path d="M70.28,120.36c19.68,0,31.86-6.49,41.63-11.09,14.78-7,23-5.87,26.94-4.13-12.31-11.54-24.41-15.57-35-15.53-.6,0-1.17,0-1.74,0a36,36,0,0,0-9.73,1.78A31.89,31.89,0,0,0,88.55,93h0c-8.68,4.15-14.8,11.69-18.26,20.42,7.6-6.68,20.59-13.82,39.65-13.93C99.78,99.81,80.46,105.14,70.28,120.36Z" transform="translate(-1.7 -1.92)" fill="#fff"></path>
  <path d="M88.54,90.59c-8.68,4.15-14.8,14.08-18.26,22.81C66.82,104.67,60.69,94.74,52,90.59a13.06,13.06,0,0,0,4.65-4.06s0,0,.06-.06a22.66,22.66,0,0,0,1.53-1.9v0c.17-.24.35-.48.5-.72a20.92,20.92,0,0,0,3.61-13.24C61.63,60.18,50.29,49.72,50.29,36.4c0-18.57,18-33,20-34.48-1,1.16-13.92,15.35-13.89,32.75,0,12.23,6.21,17.3,8.69,17.09,4.1-.37,2.53-8.12,2.67-10-.77-.09,2.16.14,2.53.14s2-.21,2.4-.28c.14,1.88-1.31,9.77,2.8,10.14C78,52,84.15,46.9,84.17,34.67c0-17.4-12.88-31.59-13.89-32.75,2,1.45,20,15.91,20,34.48,0,13.32-11.34,23.78-12.06,34.19a20.91,20.91,0,0,0,3.6,13.24l.5.72v0a20.89,20.89,0,0,0,1.54,1.9.1.1,0,0,1,0,.06A13.14,13.14,0,0,0,88.54,90.59Z" transform="translate(-1.7 -1.92)" fill="#fff"></path>
  <path d="M88.54,90.58h0a13.14,13.14,0,0,1-4.65-4.06A23.46,23.46,0,0,0,88.54,90.58Z" transform="translate(-1.7 -1.92)" fill="#fff"></path>
  <path d="M103.87,87.12c-.6,0-1.17,0-1.74,0a36,36,0,0,0-9.73,1.78c1.24-6.57,8.69-18.11,10.83-25.84-3.64,8-13.51,19.63-14.69,27.48h0c-1.82-.84-7-7.86-6.91-8.4,1.51-20.74,23.06-27.14,24.73-38.69C114.09,61.23,110.8,78.64,103.87,87.12Z" transform="translate(-1.7 -1.92)" fill="#fff"></path>
  <path d="M156.49,72l-14-27.78h7.69l11.28,22.82-2.17-.68h6.58l-2.3.68L174,44.24h7.25L168.21,72Zm2.24,17.48V70.72H166V89.5Z" transform="translate(-1.7 -1.92)" fill="#fff"></path>
  <path d="M198.22,90.62a19.27,19.27,0,0,1-7.75-1.46,17,17,0,0,1-5.64-3.87,16.44,16.44,0,0,1-3.47-5.49,17.48,17.48,0,0,1-1.18-6.35V72.21a17.35,17.35,0,0,1,1.21-6.39,16.76,16.76,0,0,1,3.53-5.55,17,17,0,0,1,5.67-3.88A19.37,19.37,0,0,1,198.22,55a19.15,19.15,0,0,1,7.6,1.42,17.48,17.48,0,0,1,5.67,3.88,16.53,16.53,0,0,1,3.56,5.55,17.35,17.35,0,0,1,1.21,6.39v1.24a17.48,17.48,0,0,1-1.18,6.35,16.44,16.44,0,0,1-3.47,5.49A17,17,0,0,1,206,89.16,19.3,19.3,0,0,1,198.22,90.62Zm0-6.33a10.77,10.77,0,0,0,5.83-1.51,10,10,0,0,0,3.69-4.13,14,14,0,0,0,0-11.72A10.15,10.15,0,0,0,204,62.81a11.71,11.71,0,0,0-11.54,0,10.15,10.15,0,0,0-3.72,4.12,14,14,0,0,0,0,11.72,10,10,0,0,0,3.69,4.13A10.77,10.77,0,0,0,198.22,84.29Z" transform="translate(-1.7 -1.92)" fill="#fff"></path>
  <path d="M235.79,102.58q-2.35,0-4.77-.18c-1.61-.12-3.12-.29-4.53-.5V95.76c1.49.21,3.07.39,4.74.53s3.24.22,4.69.22a18,18,0,0,0,7-1.12A7.35,7.35,0,0,0,246.73,92a13,13,0,0,0,1.21-6V79.46L249.87,75a18,18,0,0,1-2,8.12,12.44,12.44,0,0,1-4.84,5,13.87,13.87,0,0,1-6.85,1.67,15,15,0,0,1-6.32-1.3,14.37,14.37,0,0,1-4.9-3.66,17.13,17.13,0,0,1-3.16-5.42,19.12,19.12,0,0,1-1.12-6.54V71.65a18.29,18.29,0,0,1,1.15-6.57,16,16,0,0,1,3.26-5.31,14.63,14.63,0,0,1,5.05-3.5A16.45,16.45,0,0,1,236.6,55a14.41,14.41,0,0,1,7.22,1.77A12.44,12.44,0,0,1,248.75,62a18.66,18.66,0,0,1,1.92,8.31l-1.61.19V56.08h5.77V85.54a21.32,21.32,0,0,1-2,9.82,11.72,11.72,0,0,1-6.14,5.49A28.88,28.88,0,0,1,235.79,102.58ZM238,83.3a10.37,10.37,0,0,0,5-1.21,9,9,0,0,0,3.6-3.47,10.5,10.5,0,0,0,1.33-5.42V70.66a9.37,9.37,0,0,0-1.39-5.24,9.11,9.11,0,0,0-3.63-3.26A10.73,10.73,0,0,0,238,61a10,10,0,0,0-5.27,1.4,9.44,9.44,0,0,0-3.56,3.91,14.14,14.14,0,0,0,0,11.78A9.39,9.39,0,0,0,232.78,82,10,10,0,0,0,238,83.3Z" transform="translate(-1.7 -1.92)" fill="#fff"></path>
  <path d="M278.14,90.62a17.94,17.94,0,0,1-7.57-1.49,14.79,14.79,0,0,1-5.27-3.94,17,17,0,0,1-3.07-5.51,19.88,19.88,0,0,1-1-6.3V72.21a20,20,0,0,1,1-6.36,17,17,0,0,1,3.07-5.52,14.77,14.77,0,0,1,5.18-3.9A17,17,0,0,1,277.76,55a16.05,16.05,0,0,1,9,2.35,15,15,0,0,1,5.4,6.11,18.46,18.46,0,0,1,1.8,8.09v2.92H264.31v-4.9h24.74l-2,2.48a14.69,14.69,0,0,0-1.05-5.8,8.31,8.31,0,0,0-3.1-3.78,10.59,10.59,0,0,0-10.54.15,8.85,8.85,0,0,0-3.22,4.1,16.13,16.13,0,0,0-1.06,6.14,15.86,15.86,0,0,0,1.06,6A8.8,8.8,0,0,0,272.43,83a11.47,11.47,0,0,0,11.41,0,6.1,6.1,0,0,0,2.73-3.56h6.76a13.32,13.32,0,0,1-8,9.85A18,18,0,0,1,278.14,90.62Z" transform="translate(-1.7 -1.92)" fill="#fff"></path>
</svg>
